<?xml version="1.0" standalone="no"?><!DOCTYPE svg PUBLIC "-//W3C//DTD SVG 1.1//EN" "http://www.w3.org/Graphics/SVG/1.1/DTD/svg11.dtd"><svg t="1750879643260" class="icon" viewBox="0 0 1024 1024" version="1.1" xmlns="http://www.w3.org/2000/svg" p-id="10641" width="128" height="128" xmlns:xlink="http://www.w3.org/1999/xlink"><path d="M216.327 223.774q154.116 0 616.465 0 27.010 0 46.076 19.066 19.066 19.066 19.066 46.076 0 155.705 0 467.115 0 27.010-19.066 46.076-19.066 19.066-46.076 19.066-205.753 0-616.465 0-26.216 0-46.076-19.066-19.066-19.066-19.066-46.076 0-54.815 0-164.444 0-19.066 0-47.665 0-14.299 0-30.982 0-20.655 0-45.282 0-73.086 0-178.743 0-27.010 19.066-46.076 19.86-19.066 46.076-19.066zM216.327 855.333q154.116 0 616.465 0 41.31 0 69.908-28.599 27.804-28.599 27.804-69.114 0-155.705 0-467.91 0-40.515-27.804-69.114-28.599-28.599-69.908-28.599-205.753 0-616.465 0-40.515 0-69.114 28.599-28.599 28.599-28.599 69.114 0 41.31 0 123.929 0 42.898 0 128.695 0 42.898 0 96.918 0 27.010 0 56.403 0 29.393 0 61.964 0 39.721 28.599 68.32 28.599 29.393 69.114 29.393zM262.403 425.555q0 28.599 19.86 48.459 20.655 20.655 49.254 20.655 28.599 0 49.254-20.655 19.86-19.86 19.86-48.459 0-28.599-19.86-48.459-20.655-20.655-49.254-20.655-28.599 0-49.254 20.655t-19.86 48.459zM294.974 425.555q0-15.094 11.122-26.216 10.327-10.327 25.421-10.327 15.094 0 25.421 10.327 11.122 11.122 11.122 26.216 0 15.094-11.122 26.216-10.327 10.327-25.421 10.327-14.299 0-25.421-10.327t-11.122-26.216zM663.582 493.081q42.898 42.898 172.388 172.388 5.561 5.561 5.561 11.122 0 6.355-5.561 11.916-5.561 6.355-11.916 6.355-5.561 0-11.122-6.355-57.198-57.198-172.388-172.388-8.739-8.739-22.244-8.739-14.299 0-23.832 8.739-46.076 46.076-138.228 137.434-19.066 19.066-46.87 19.066-27.010 0-46.87-19.066-7.15-7.15-21.449-22.244-9.533-8.739-23.832-8.739-13.505 0-22.244 8.739-19.066 19.066-57.198 57.198-11.122 11.916-23.038 0-5.561-5.561-5.561-11.122 0-5.561 5.561-11.916 19.066-19.066 57.198-57.198 19.066-19.066 46.87-19.066 27.010 0 46.87 19.066 7.15 7.15 21.449 22.244 8.739 8.739 22.244 8.739 14.299 0 23.832-8.739 45.282-46.076 136.639-137.434 19.86-19.066 47.665-19.066 27.010 0 46.076 19.066z" p-id="10642" fill="#cdcdcd"></path></svg>