<?xml version="1.0" standalone="no"?><!DOCTYPE svg PUBLIC "-//W3C//DTD SVG 1.1//EN" "http://www.w3.org/Graphics/SVG/1.1/DTD/svg11.dtd"><svg t="1718337592099" class="icon" viewBox="0 0 1024 1024" version="1.1" xmlns="http://www.w3.org/2000/svg" p-id="19777" xmlns:xlink="http://www.w3.org/1999/xlink" width="128" height="128"><path d="M512 0c68.266667 0 136.533333 14.222222 199.111111 39.822222 59.733333 25.6 116.622222 62.577778 162.133333 110.933334 48.355556 48.355556 82.488889 102.4 110.933334 162.133333 25.6 62.577778 39.822222 130.844444 39.822222 199.111111s-14.222222 136.533333-39.822222 199.111111c-25.6 59.733333-62.577778 116.622222-110.933334 162.133333-48.355556 48.355556-102.4 82.488889-162.133333 110.933334-62.577778 25.6-130.844444 39.822222-199.111111 39.822222s-136.533333-14.222222-199.111111-39.822222c-59.733333-25.6-116.622222-62.577778-162.133333-110.933334s-85.333333-102.4-110.933334-162.133333C14.222222 648.533333 0 580.266667 0 512s14.222222-136.533333 39.822222-199.111111c25.6-59.733333 62.577778-116.622222 110.933334-162.133333s102.4-85.333333 162.133333-110.933334C375.466667 14.222222 443.733333 0 512 0m0 0C230.4 0 0 230.4 0 512s230.4 512 512 512 512-230.4 512-512S793.6 0 512 0z" fill="#FFFFFF" p-id="19778"></path></svg>