<?xml version="1.0" standalone="no"?><!DOCTYPE svg PUBLIC "-//W3C//DTD SVG 1.1//EN" "http://www.w3.org/Graphics/SVG/1.1/DTD/svg11.dtd"><svg t="1716891231242" class="icon" viewBox="0 0 1024 1024" version="1.1" xmlns="http://www.w3.org/2000/svg" p-id="2347" xmlns:xlink="http://www.w3.org/1999/xlink" width="128" height="128"><path d="M960.17 64l0.11 0.11v895.78l-0.11 0.11H64.39l-0.11-0.11V64.11l0.11-0.11h895.78m0.11-64h-896a64.19 64.19 0 0 0-64 64v896a64.19 64.19 0 0 0 64 64h896a64.19 64.19 0 0 0 64-64V64a64.19 64.19 0 0 0-64-64z" p-id="2348"></path><path d="M593.28 792a32 32 0 0 1-26.58-14.17L318.39 407.62l-267.83 345L0 713.38l295-380a32 32 0 0 1 51.85 1.8l251.64 375.15L779.98 534a32 32 0 0 1 46.46 2l184 212-48.33 42-161.83-186.46L615.58 783a32 32 0 0 1-22.3 9zM768.28 192a64 64 0 1 1-64 64 64.07 64.07 0 0 1 64-64m0-64a128 128 0 1 0 128 128 128 128 0 0 0-128-128z" p-id="2349"></path></svg>