<?xml version="1.0" encoding="UTF-8" standalone="no"?>
<!-- Created with Inkscape (http://www.inkscape.org/) -->

<svg
   width="600"
   height="600"
   viewBox="0 0 158.75 158.75"
   version="1.1"
   id="svg1"
   xmlns="http://www.w3.org/2000/svg"
   xmlns:svg="http://www.w3.org/2000/svg">
  <defs
     id="defs1" />
  <g
     id="layer1">
    <path
       d="m 139.92376,105.83333 h -2.83032 a 63.5,63.5 0 0 1 -4.29896,7.87239 63.5,63.5 0 0 1 -5.42913,7.25279 63.5,63.5 0 0 1 -6.40684,6.40684 63.5,63.5 0 0 1 -7.25279,5.42913 63.5,63.5 0 0 1 -7.95197,4.34237 63.5,63.5 0 0 1 -8.488886,3.1657 63.5,63.5 0 0 1 -8.85269,1.92598 63.5,63.5 0 0 1 -9.037174,0.64647 63.5,63.5 0 0 1 -9.037174,-0.64647 63.5,63.5 0 0 1 -8.85269,-1.92598 63.5,63.5 0 0 1 -8.488888,-3.1657 63.5,63.5 0 0 1 -7.951969,-4.34237 63.5,63.5 0 0 1 -7.252787,-5.42913 63.5,63.5 0 0 1 -6.406844,-6.40684 63.5,63.5 0 0 1 -5.429126,-7.25279 63.5,63.5 0 0 1 -4.298963,-7.87239 h -2.830318 a 66.145836,66.145836 0 0 0 0.380339,1.01958 66.145836,66.145836 0 0 0 4.523238,8.28321 66.145836,66.145836 0 0 0 5.655468,7.5551 66.145836,66.145836 0 0 0 6.673495,6.67349 66.145836,66.145836 0 0 0 7.555094,5.65547 66.145836,66.145836 0 0 0 8.283216,4.52324 66.145836,66.145836 0 0 0 8.842354,3.29799 66.145836,66.145836 0 0 0 9.222176,2.00608 66.145836,66.145836 0 0 0 9.413379,0.67334 66.145836,66.145836 0 0 0 9.413379,-0.67334 66.145836,66.145836 0 0 0 9.222176,-2.00608 66.145836,66.145836 0 0 0 8.842355,-3.29799 66.145836,66.145836 0 0 0 8.28321,-4.52324 66.145836,66.145836 0 0 0 7.5551,-5.65547 66.145836,66.145836 0 0 0 6.67349,-6.67349 66.145836,66.145836 0 0 0 5.65547,-7.5551 66.145836,66.145836 0 0 0 4.52324,-8.28321 66.145836,66.145836 0 0 0 0.38034,-1.01958 z"
       style="fill:#b3b3b3;stroke-width:0.264583"
       id="path5" />
    <path
       d="m 79.375,13.229167 a 66.145836,66.145836 0 0 0 -9.413379,0.673344 66.145836,66.145836 0 0 0 -9.222176,2.006079 66.145836,66.145836 0 0 0 -8.842354,3.29799 66.145836,66.145836 0 0 0 -8.283216,4.523238 66.145836,66.145836 0 0 0 -7.555094,5.655468 66.145836,66.145836 0 0 0 -6.673495,6.673495 66.145836,66.145836 0 0 0 -5.655468,7.555094 66.145836,66.145836 0 0 0 -4.523238,8.283216 66.145836,66.145836 0 0 0 -0.380339,1.019576 h 2.830318 a 63.5,63.5 0 0 1 4.298963,-7.872388 63.5,63.5 0 0 1 5.429126,-7.252787 63.5,63.5 0 0 1 6.406844,-6.406844 63.5,63.5 0 0 1 7.252787,-5.429126 63.5,63.5 0 0 1 7.951969,-4.342371 63.5,63.5 0 0 1 8.488888,-3.165698 63.5,63.5 0 0 1 8.85269,-1.925981 A 63.5,63.5 0 0 1 79.375,15.875 a 63.5,63.5 0 0 1 3.216341,0.08165 63.5,63.5 0 0 1 3.208073,0.243913 63.5,63.5 0 0 1 3.19102,0.406693 63.5,63.5 0 0 1 3.167248,0.567407 63.5,63.5 0 0 1 3.133659,0.727604 63.5,63.5 0 0 1 3.093351,0.884701 63.5,63.5 0 0 1 3.044258,1.040763 63.5,63.5 0 0 1 2.98742,1.193209 63.5,63.5 0 0 1 2.92385,1.343587 63.5,63.5 0 0 1 2.8515,1.489315 63.5,63.5 0 0 1 2.77244,1.632459 63.5,63.5 0 0 1 2.68615,1.770434 63.5,63.5 0 0 1 2.59364,1.90376 63.5,63.5 0 0 1 2.49338,2.033468 63.5,63.5 0 0 1 2.38694,2.156457 63.5,63.5 0 0 1 2.27531,2.275313 63.5,63.5 0 0 1 2.15646,2.386935 63.5,63.5 0 0 1 2.03347,2.493388 63.5,63.5 0 0 1 1.90376,2.59364 63.5,63.5 0 0 1 1.77043,2.686141 63.5,63.5 0 0 1 1.63246,2.77244 63.5,63.5 0 0 1 1.48931,2.851506 63.5,63.5 0 0 1 0.69247,1.506885 h 2.90008 a 66.145836,66.145836 0 0 0 -0.8077,-1.822628 66.145836,66.145836 0 0 0 -1.45986,-2.900081 66.145836,66.145836 0 0 0 -1.60042,-2.824634 66.145836,66.145836 0 0 0 -1.73685,-2.742985 66.145836,66.145836 0 0 0 -1.86913,-2.654619 66.145836,66.145836 0 0 0 -1.99781,-2.559017 66.145836,66.145836 0 0 0 -2.12029,-2.458764 66.145836,66.145836 0 0 0 -2.23862,-2.351278 66.145836,66.145836 0 0 0 -2.35128,-2.238623 66.145836,66.145836 0 0 0 -2.45876,-2.120284 66.145836,66.145836 0 0 0 -2.55902,-1.997811 66.145836,66.145836 0 0 0 -2.65462,-1.869136 66.145836,66.145836 0 0 0 -2.74298,-1.736845 66.145836,66.145836 0 0 0 -2.82464,-1.600419 66.145836,66.145836 0 0 0 -2.90008,-1.45986 66.145836,66.145836 0 0 0 -2.96829,-1.315682 66.145836,66.145836 0 0 0 -3.02876,-1.168404 A 66.145836,66.145836 0 0 0 98.575895,16.077572 66.145836,66.145836 0 0 0 95.446887,15.211475 66.145836,66.145836 0 0 0 92.279639,14.49989 66.145836,66.145836 0 0 0 89.080868,13.944885 66.145836,66.145836 0 0 0 85.858325,13.547493 66.145836,66.145836 0 0 0 82.620797,13.308748 66.145836,66.145836 0 0 0 79.375,13.229167 Z"
       style="fill:#b3b3b3;stroke-width:0.264583"
       id="path4" />
    <text
       xml:space="preserve"
       style="font-style:normal;font-variant:normal;font-weight:normal;font-stretch:normal;font-size:50.2708px;font-family:Verdana;-inkscape-font-specification:Verdana;fill:#b3b3b3;stroke-width:0.264583"
       x="3.44912"
       y="97.620377"
       id="text2"><tspan
         id="tspan2"
         style="font-style:normal;font-variant:normal;font-weight:normal;font-stretch:normal;font-size:50.2708px;font-family:Verdana;-inkscape-font-specification:Verdana;stroke-width:0.264583"
         x="3.44912"
         y="97.620377">DiTalk</tspan></text>
  </g>
</svg>
