<?xml version="1.0" standalone="no"?><!DOCTYPE svg PUBLIC "-//W3C//DTD SVG 1.1//EN" "http://www.w3.org/Graphics/SVG/1.1/DTD/svg11.dtd"><svg t="1704345921211" class="icon" viewBox="0 0 1024 1024" version="1.1" xmlns="http://www.w3.org/2000/svg" p-id="3728" xmlns:xlink="http://www.w3.org/1999/xlink" width="32" height="32"><path d="M139.636364 199.835152a62.060606 62.060606 0 0 1 62.060606-62.060607h620.60606a62.060606 62.060606 0 0 1 62.060606 62.060607v620.60606a62.060606 62.060606 0 0 1-62.060606 62.060606h-620.60606a62.060606 62.060606 0 0 1-62.060606-62.060606v-620.60606z m682.666666 0h-620.60606v620.60606h620.60606v-620.60606z" fill="#7A7E83" p-id="3729"></path><path d="M157.820121 155.958303a31.030303 31.030303 0 0 1 43.876849 0L866.179879 820.441212a31.030303 31.030303 0 0 1-43.876849 43.876849L157.820121 199.835152a31.030303 31.030303 0 0 1 0-43.876849z" fill="#7A7E83" p-id="3730"></path></svg>